<?xml version="1.0" encoding="utf-8"?>
<!-- Uploaded to: SVG Repo, www.svgrepo.com, Generator: SVG Repo Mixer Tools -->
<svg width="800px" height="800px" viewBox="0 0 1024 1024" class="icon"  version="1.1" xmlns="http://www.w3.org/2000/svg"><path d="M276.29568 808.21248m28.01664 0l0.01024 0q28.01664 0 28.01664 28.01664l0 88.07424q0 28.01664-28.01664 28.01664l-0.01024 0q-28.01664 0-28.01664-28.01664l0-88.07424q0-28.01664 28.01664-28.01664Z" fill="#DFF1FB" /><path d="M412.39552 784.19968m28.01664 0l0.01024 0q28.01664 0 28.01664 28.01664l0 88.07424q0 28.01664-28.01664 28.01664l-0.01024 0q-28.01664 0-28.01664-28.01664l0-88.07424q0-28.01664 28.01664-28.01664Z" fill="#DFF1FB" /><path d="M548.49536 808.21248m28.01664 0l0.01024 0q28.01664 0 28.01664 28.01664l0 88.07424q0 28.01664-28.01664 28.01664l-0.01024 0q-28.01664 0-28.01664-28.01664l0-88.07424q0-28.01664 28.01664-28.01664Z" fill="#DFF1FB" /><path d="M684.5952 784.19968m28.01664 0l0.01024 0q28.01664 0 28.01664 28.01664l0 88.07424q0 28.01664-28.01664 28.01664l-0.01024 0q-28.01664 0-28.01664-28.01664l0-88.07424q0-28.01664 28.01664-28.01664Z" fill="#DFF1FB" /><path d="M548.70016 716.8c-92.06784 0-170.62912-32.59392-235.85792-97.8432C247.6032 553.6768 215.04 475.01312 215.04 382.96576c0-66.23232 18.70848-127.54944 56.05376-184.2176C308.5312 142.14144 357.43744 100.4544 417.81248 73.5232c3.80928-2.89792 7.68-2.37568 11.47904 1.4336 4.78208 2.89792 6.26688 7.15776 4.33152 12.96384-15.28832 36.54656-22.97856 73.37984-22.97856 110.82752 0 85.4016 30.464 158.5152 91.36128 219.46368 60.88704 60.928 133.98016 91.392 219.3408 91.392 46.96064 0 87.73632-7.168 122.25536-21.56544 3.79904-2.94912 7.60832-2.4576 11.42784 1.35168 4.75136 2.90816 6.2464 7.168 4.3008 12.97408-24.89344 65.25952-65.40288 117.27872-121.53856 156.13952C681.728 697.36448 618.7008 716.8 548.70016 716.8z" fill="#FA870B" /><path d="M702.74048 311.8592c122.624 0 222.02368 98.56 222.02368 220.16 0 121.58976-99.39968 220.16-222.02368 220.16l2.4576-0.02048 0.01024 0.02048-1.24928-0.01024H288.58368l-0.01024-0.02048-3.2768 0.03072C179.79392 752.1792 94.04416 668.28288 92.19072 564.10112L92.16 560.66048C92.16 454.89152 178.62656 369.152 285.29664 369.152c97.30048 0 177.79712 71.34208 191.1808 164.1472h4.23936v-1.28c0-120.38144 97.42336-218.19392 218.34752-220.13952z" fill="#DFF1FB" /></svg>